<svg xmlns="http://www.w3.org/2000/svg" data-name="Layer 1" viewBox="0 0 128 128"><path d="M64,117.18a4.83,4.83,0,0,1-2.94-1s-3.69-2.78-13.89-8.37C31.56,99.26,24.38,89,22.39,72.4c-1.54-12.85-2.54-39.69-2.58-40.83a4.82,4.82,0,0,1,5.25-5c.1,0,10.54.88,19.52-1.64a48.46,48.46,0,0,0,16.31-8.3,4.84,4.84,0,0,1,6.22,0A48.51,48.51,0,0,0,83.42,25c9,2.52,19.42,1.64,19.53,1.64a4.81,4.81,0,0,1,5.24,5c0,1.14-1,28-2.58,40.83-2,16.6-9.17,26.86-24.77,35.4-10.2,5.59-13.87,8.36-13.91,8.39A4.82,4.82,0,0,1,64,117.18ZM29.65,36.39C30,45,30.87,62.12,32,71.26c1.4,11.68,5.09,20,19.83,28.09,6,3.27,9.86,5.65,12.21,7.18,2.35-1.53,6.24-3.91,12.21-7.18C91,91.28,94.64,82.94,96,71.26,97.13,62.12,98,45,98.35,36.39a67.44,67.44,0,0,1-17.54-2.15A58.54,58.54,0,0,1,64,26.33a58.54,58.54,0,0,1-16.81,7.91A67.44,67.44,0,0,1,29.65,36.39ZM64,20.34h0Z"/></svg>